<mxfile host="Electron" modified="2023-04-20T22:03:28.630Z" agent="Mozilla/5.0 (X11; Linux x86_64) AppleWebKit/537.36 (KHTML, like Gecko) draw.io/21.2.1 Chrome/112.0.5615.87 Electron/24.1.2 Safari/537.36" etag="seIwlsj2HzYNUO_M24Hb" version="21.2.1" type="device">
  <diagram id="C5RBs43oDa-KdzZeNtuy" name="Page-1">
    <mxGraphModel dx="2514" dy="935" grid="1" gridSize="10" guides="1" tooltips="1" connect="1" arrows="1" fold="1" page="1" pageScale="1" pageWidth="827" pageHeight="1169" math="0" shadow="0">
      <root>
        <mxCell id="WIyWlLk6GJQsqaUBKTNV-0" />
        <mxCell id="WIyWlLk6GJQsqaUBKTNV-1" parent="WIyWlLk6GJQsqaUBKTNV-0" />
        <mxCell id="ptOUUm3T6Vk_q6HezHhn-102" value="" style="rounded=0;whiteSpace=wrap;html=1;fillColor=#f5f5f5;fontColor=#333333;strokeColor=#666666;" vertex="1" parent="WIyWlLk6GJQsqaUBKTNV-1">
          <mxGeometry x="230" y="1590" width="350" height="710" as="geometry" />
        </mxCell>
        <mxCell id="ptOUUm3T6Vk_q6HezHhn-72" value="" style="rounded=0;whiteSpace=wrap;html=1;fillColor=#f5f5f5;fontColor=#333333;strokeColor=#666666;" vertex="1" parent="WIyWlLk6GJQsqaUBKTNV-1">
          <mxGeometry x="-240" y="1680" width="180" height="390" as="geometry" />
        </mxCell>
        <mxCell id="ptOUUm3T6Vk_q6HezHhn-61" style="edgeStyle=orthogonalEdgeStyle;rounded=0;orthogonalLoop=1;jettySize=auto;html=1;exitX=0.5;exitY=1;exitDx=0;exitDy=0;exitPerimeter=0;entryX=0.5;entryY=0;entryDx=0;entryDy=0;" edge="1" parent="WIyWlLk6GJQsqaUBKTNV-1" source="ptOUUm3T6Vk_q6HezHhn-9" target="ptOUUm3T6Vk_q6HezHhn-58">
          <mxGeometry relative="1" as="geometry" />
        </mxCell>
        <mxCell id="ptOUUm3T6Vk_q6HezHhn-9" value="Start game" style="strokeWidth=2;html=1;shape=mxgraph.flowchart.terminator;whiteSpace=wrap;fillColor=#d5e8d4;strokeColor=#82b366;" vertex="1" parent="WIyWlLk6GJQsqaUBKTNV-1">
          <mxGeometry x="-80" y="420" width="100" height="60" as="geometry" />
        </mxCell>
        <mxCell id="ptOUUm3T6Vk_q6HezHhn-15" style="edgeStyle=orthogonalEdgeStyle;rounded=0;orthogonalLoop=1;jettySize=auto;html=1;exitX=0.5;exitY=1;exitDx=0;exitDy=0;exitPerimeter=0;entryX=0.5;entryY=0;entryDx=0;entryDy=0;" edge="1" parent="WIyWlLk6GJQsqaUBKTNV-1" source="ptOUUm3T6Vk_q6HezHhn-11" target="ptOUUm3T6Vk_q6HezHhn-12">
          <mxGeometry relative="1" as="geometry" />
        </mxCell>
        <mxCell id="ptOUUm3T6Vk_q6HezHhn-11" value="Players turn" style="strokeWidth=2;html=1;shape=mxgraph.flowchart.terminator;whiteSpace=wrap;fillColor=#dae8fc;strokeColor=#6c8ebf;" vertex="1" parent="WIyWlLk6GJQsqaUBKTNV-1">
          <mxGeometry x="180" y="420" width="100" height="60" as="geometry" />
        </mxCell>
        <mxCell id="ptOUUm3T6Vk_q6HezHhn-14" style="edgeStyle=orthogonalEdgeStyle;rounded=0;orthogonalLoop=1;jettySize=auto;html=1;exitX=0.5;exitY=1;exitDx=0;exitDy=0;entryX=0.5;entryY=0;entryDx=0;entryDy=0;" edge="1" parent="WIyWlLk6GJQsqaUBKTNV-1" source="ptOUUm3T6Vk_q6HezHhn-12" target="ptOUUm3T6Vk_q6HezHhn-13">
          <mxGeometry relative="1" as="geometry" />
        </mxCell>
        <mxCell id="ptOUUm3T6Vk_q6HezHhn-12" value="Take card" style="rounded=1;whiteSpace=wrap;html=1;fontSize=12;glass=0;strokeWidth=1;shadow=0;fillColor=#f5f5f5;fontColor=#333333;strokeColor=#666666;" vertex="1" parent="WIyWlLk6GJQsqaUBKTNV-1">
          <mxGeometry x="170" y="530" width="120" height="40" as="geometry" />
        </mxCell>
        <mxCell id="ptOUUm3T6Vk_q6HezHhn-20" style="edgeStyle=orthogonalEdgeStyle;rounded=0;orthogonalLoop=1;jettySize=auto;html=1;exitX=0.5;exitY=1;exitDx=0;exitDy=0;entryX=0.5;entryY=0;entryDx=0;entryDy=0;" edge="1" parent="WIyWlLk6GJQsqaUBKTNV-1" source="ptOUUm3T6Vk_q6HezHhn-13" target="ptOUUm3T6Vk_q6HezHhn-19">
          <mxGeometry relative="1" as="geometry" />
        </mxCell>
        <mxCell id="ptOUUm3T6Vk_q6HezHhn-13" value="Display card" style="rounded=1;whiteSpace=wrap;html=1;fontSize=12;glass=0;strokeWidth=1;shadow=0;fillColor=#f5f5f5;fontColor=#333333;strokeColor=#666666;" vertex="1" parent="WIyWlLk6GJQsqaUBKTNV-1">
          <mxGeometry x="170" y="620" width="120" height="40" as="geometry" />
        </mxCell>
        <mxCell id="ptOUUm3T6Vk_q6HezHhn-25" value="Continue" style="edgeStyle=orthogonalEdgeStyle;rounded=0;orthogonalLoop=1;jettySize=auto;html=1;exitX=0.5;exitY=0;exitDx=0;exitDy=0;entryX=1;entryY=0.5;entryDx=0;entryDy=0;" edge="1" parent="WIyWlLk6GJQsqaUBKTNV-1" source="ptOUUm3T6Vk_q6HezHhn-18" target="ptOUUm3T6Vk_q6HezHhn-12">
          <mxGeometry x="-0.2857" relative="1" as="geometry">
            <Array as="points">
              <mxPoint x="410" y="550" />
            </Array>
            <mxPoint as="offset" />
          </mxGeometry>
        </mxCell>
        <mxCell id="ptOUUm3T6Vk_q6HezHhn-27" value="Stop" style="edgeStyle=orthogonalEdgeStyle;rounded=0;orthogonalLoop=1;jettySize=auto;html=1;exitX=1;exitY=0.5;exitDx=0;exitDy=0;entryX=0;entryY=0.5;entryDx=0;entryDy=0;entryPerimeter=0;" edge="1" parent="WIyWlLk6GJQsqaUBKTNV-1" source="ptOUUm3T6Vk_q6HezHhn-18" target="ptOUUm3T6Vk_q6HezHhn-26">
          <mxGeometry x="-0.4706" relative="1" as="geometry">
            <mxPoint x="410" y="450" as="targetPoint" />
            <Array as="points">
              <mxPoint x="490" y="930" />
              <mxPoint x="490" y="450" />
            </Array>
            <mxPoint as="offset" />
          </mxGeometry>
        </mxCell>
        <mxCell id="ptOUUm3T6Vk_q6HezHhn-18" value="Stop or continue?" style="rhombus;whiteSpace=wrap;html=1;shadow=0;fontFamily=Helvetica;fontSize=12;align=center;strokeWidth=1;spacing=6;spacingTop=-4;fillColor=#f5f5f5;strokeColor=#666666;fontColor=#333333;" vertex="1" parent="WIyWlLk6GJQsqaUBKTNV-1">
          <mxGeometry x="360" y="890" width="100" height="80" as="geometry" />
        </mxCell>
        <mxCell id="ptOUUm3T6Vk_q6HezHhn-23" style="edgeStyle=orthogonalEdgeStyle;rounded=0;orthogonalLoop=1;jettySize=auto;html=1;exitX=0.5;exitY=1;exitDx=0;exitDy=0;entryX=0.5;entryY=0;entryDx=0;entryDy=0;" edge="1" parent="WIyWlLk6GJQsqaUBKTNV-1" source="ptOUUm3T6Vk_q6HezHhn-19" target="ptOUUm3T6Vk_q6HezHhn-22">
          <mxGeometry relative="1" as="geometry" />
        </mxCell>
        <mxCell id="ptOUUm3T6Vk_q6HezHhn-19" value="Calculate current points" style="rounded=1;whiteSpace=wrap;html=1;fontSize=12;glass=0;strokeWidth=1;shadow=0;fillColor=#f5f5f5;fontColor=#333333;strokeColor=#666666;" vertex="1" parent="WIyWlLk6GJQsqaUBKTNV-1">
          <mxGeometry x="170" y="710" width="120" height="40" as="geometry" />
        </mxCell>
        <mxCell id="ptOUUm3T6Vk_q6HezHhn-30" style="edgeStyle=orthogonalEdgeStyle;rounded=0;orthogonalLoop=1;jettySize=auto;html=1;exitX=0.5;exitY=1;exitDx=0;exitDy=0;entryX=0.5;entryY=0;entryDx=0;entryDy=0;" edge="1" parent="WIyWlLk6GJQsqaUBKTNV-1" source="ptOUUm3T6Vk_q6HezHhn-22" target="ptOUUm3T6Vk_q6HezHhn-28">
          <mxGeometry relative="1" as="geometry" />
        </mxCell>
        <mxCell id="ptOUUm3T6Vk_q6HezHhn-22" value="Display current points" style="rounded=1;whiteSpace=wrap;html=1;fontSize=12;glass=0;strokeWidth=1;shadow=0;fillColor=#f5f5f5;fontColor=#333333;strokeColor=#666666;" vertex="1" parent="WIyWlLk6GJQsqaUBKTNV-1">
          <mxGeometry x="170" y="800" width="120" height="40" as="geometry" />
        </mxCell>
        <mxCell id="ptOUUm3T6Vk_q6HezHhn-43" style="edgeStyle=orthogonalEdgeStyle;rounded=0;orthogonalLoop=1;jettySize=auto;html=1;exitX=0.5;exitY=1;exitDx=0;exitDy=0;exitPerimeter=0;entryX=0.5;entryY=0;entryDx=0;entryDy=0;" edge="1" parent="WIyWlLk6GJQsqaUBKTNV-1" source="ptOUUm3T6Vk_q6HezHhn-26" target="ptOUUm3T6Vk_q6HezHhn-35">
          <mxGeometry relative="1" as="geometry" />
        </mxCell>
        <mxCell id="ptOUUm3T6Vk_q6HezHhn-26" value="Banks turn" style="strokeWidth=2;html=1;shape=mxgraph.flowchart.terminator;whiteSpace=wrap;fillColor=#fff2cc;strokeColor=#d6b656;" vertex="1" parent="WIyWlLk6GJQsqaUBKTNV-1">
          <mxGeometry x="660" y="420" width="100" height="60" as="geometry" />
        </mxCell>
        <mxCell id="ptOUUm3T6Vk_q6HezHhn-32" value="Yes" style="edgeStyle=orthogonalEdgeStyle;rounded=0;orthogonalLoop=1;jettySize=auto;html=1;exitX=0.5;exitY=1;exitDx=0;exitDy=0;entryX=0.5;entryY=0;entryDx=0;entryDy=0;entryPerimeter=0;" edge="1" parent="WIyWlLk6GJQsqaUBKTNV-1" source="ptOUUm3T6Vk_q6HezHhn-28" target="ptOUUm3T6Vk_q6HezHhn-31">
          <mxGeometry relative="1" as="geometry" />
        </mxCell>
        <mxCell id="ptOUUm3T6Vk_q6HezHhn-33" value="No" style="edgeStyle=orthogonalEdgeStyle;rounded=0;orthogonalLoop=1;jettySize=auto;html=1;entryX=0;entryY=0.5;entryDx=0;entryDy=0;" edge="1" parent="WIyWlLk6GJQsqaUBKTNV-1" source="ptOUUm3T6Vk_q6HezHhn-28" target="ptOUUm3T6Vk_q6HezHhn-18">
          <mxGeometry relative="1" as="geometry">
            <mxPoint x="380" y="1080" as="targetPoint" />
          </mxGeometry>
        </mxCell>
        <mxCell id="ptOUUm3T6Vk_q6HezHhn-28" value="Over 21?" style="rhombus;whiteSpace=wrap;html=1;shadow=0;fontFamily=Helvetica;fontSize=12;align=center;strokeWidth=1;spacing=6;spacingTop=-4;fillColor=#f5f5f5;strokeColor=#666666;fontColor=#333333;" vertex="1" parent="WIyWlLk6GJQsqaUBKTNV-1">
          <mxGeometry x="180" y="890" width="100" height="80" as="geometry" />
        </mxCell>
        <mxCell id="ptOUUm3T6Vk_q6HezHhn-50" style="edgeStyle=orthogonalEdgeStyle;rounded=0;orthogonalLoop=1;jettySize=auto;html=1;exitX=0.5;exitY=1;exitDx=0;exitDy=0;exitPerimeter=0;entryX=0.5;entryY=0;entryDx=0;entryDy=0;" edge="1" parent="WIyWlLk6GJQsqaUBKTNV-1" source="ptOUUm3T6Vk_q6HezHhn-31" target="ptOUUm3T6Vk_q6HezHhn-49">
          <mxGeometry relative="1" as="geometry" />
        </mxCell>
        <mxCell id="ptOUUm3T6Vk_q6HezHhn-31" value="End game" style="strokeWidth=2;html=1;shape=mxgraph.flowchart.terminator;whiteSpace=wrap;fillColor=#ffe6cc;strokeColor=#d79b00;" vertex="1" parent="WIyWlLk6GJQsqaUBKTNV-1">
          <mxGeometry x="364" y="1030" width="100" height="60" as="geometry" />
        </mxCell>
        <mxCell id="ptOUUm3T6Vk_q6HezHhn-34" style="edgeStyle=orthogonalEdgeStyle;rounded=0;orthogonalLoop=1;jettySize=auto;html=1;exitX=0.5;exitY=1;exitDx=0;exitDy=0;entryX=0.5;entryY=0;entryDx=0;entryDy=0;" edge="1" parent="WIyWlLk6GJQsqaUBKTNV-1" source="ptOUUm3T6Vk_q6HezHhn-35" target="ptOUUm3T6Vk_q6HezHhn-37">
          <mxGeometry relative="1" as="geometry" />
        </mxCell>
        <mxCell id="ptOUUm3T6Vk_q6HezHhn-35" value="Take card" style="rounded=1;whiteSpace=wrap;html=1;fontSize=12;glass=0;strokeWidth=1;shadow=0;fillColor=#f5f5f5;fontColor=#333333;strokeColor=#666666;" vertex="1" parent="WIyWlLk6GJQsqaUBKTNV-1">
          <mxGeometry x="650" y="530" width="120" height="40" as="geometry" />
        </mxCell>
        <mxCell id="ptOUUm3T6Vk_q6HezHhn-36" style="edgeStyle=orthogonalEdgeStyle;rounded=0;orthogonalLoop=1;jettySize=auto;html=1;exitX=0.5;exitY=1;exitDx=0;exitDy=0;entryX=0.5;entryY=0;entryDx=0;entryDy=0;" edge="1" parent="WIyWlLk6GJQsqaUBKTNV-1" source="ptOUUm3T6Vk_q6HezHhn-37" target="ptOUUm3T6Vk_q6HezHhn-39">
          <mxGeometry relative="1" as="geometry" />
        </mxCell>
        <mxCell id="ptOUUm3T6Vk_q6HezHhn-37" value="Display card" style="rounded=1;whiteSpace=wrap;html=1;fontSize=12;glass=0;strokeWidth=1;shadow=0;fillColor=#f5f5f5;fontColor=#333333;strokeColor=#666666;" vertex="1" parent="WIyWlLk6GJQsqaUBKTNV-1">
          <mxGeometry x="650" y="620" width="120" height="40" as="geometry" />
        </mxCell>
        <mxCell id="ptOUUm3T6Vk_q6HezHhn-38" style="edgeStyle=orthogonalEdgeStyle;rounded=0;orthogonalLoop=1;jettySize=auto;html=1;exitX=0.5;exitY=1;exitDx=0;exitDy=0;entryX=0.5;entryY=0;entryDx=0;entryDy=0;" edge="1" parent="WIyWlLk6GJQsqaUBKTNV-1" source="ptOUUm3T6Vk_q6HezHhn-39" target="ptOUUm3T6Vk_q6HezHhn-41">
          <mxGeometry relative="1" as="geometry" />
        </mxCell>
        <mxCell id="ptOUUm3T6Vk_q6HezHhn-39" value="Calculate current points" style="rounded=1;whiteSpace=wrap;html=1;fontSize=12;glass=0;strokeWidth=1;shadow=0;fillColor=#f5f5f5;fontColor=#333333;strokeColor=#666666;" vertex="1" parent="WIyWlLk6GJQsqaUBKTNV-1">
          <mxGeometry x="650" y="710" width="120" height="40" as="geometry" />
        </mxCell>
        <mxCell id="ptOUUm3T6Vk_q6HezHhn-40" style="edgeStyle=orthogonalEdgeStyle;rounded=0;orthogonalLoop=1;jettySize=auto;html=1;exitX=0.5;exitY=1;exitDx=0;exitDy=0;entryX=0.5;entryY=0;entryDx=0;entryDy=0;" edge="1" parent="WIyWlLk6GJQsqaUBKTNV-1" source="ptOUUm3T6Vk_q6HezHhn-41" target="ptOUUm3T6Vk_q6HezHhn-42">
          <mxGeometry relative="1" as="geometry" />
        </mxCell>
        <mxCell id="ptOUUm3T6Vk_q6HezHhn-41" value="Display current points" style="rounded=1;whiteSpace=wrap;html=1;fontSize=12;glass=0;strokeWidth=1;shadow=0;fillColor=#f5f5f5;fontColor=#333333;strokeColor=#666666;" vertex="1" parent="WIyWlLk6GJQsqaUBKTNV-1">
          <mxGeometry x="650" y="800" width="120" height="40" as="geometry" />
        </mxCell>
        <mxCell id="ptOUUm3T6Vk_q6HezHhn-45" value="Yes" style="edgeStyle=orthogonalEdgeStyle;rounded=0;orthogonalLoop=1;jettySize=auto;html=1;exitX=0.5;exitY=1;exitDx=0;exitDy=0;entryX=1;entryY=0.5;entryDx=0;entryDy=0;entryPerimeter=0;" edge="1" parent="WIyWlLk6GJQsqaUBKTNV-1" source="ptOUUm3T6Vk_q6HezHhn-42" target="ptOUUm3T6Vk_q6HezHhn-31">
          <mxGeometry relative="1" as="geometry" />
        </mxCell>
        <mxCell id="ptOUUm3T6Vk_q6HezHhn-46" value="No" style="edgeStyle=orthogonalEdgeStyle;rounded=0;orthogonalLoop=1;jettySize=auto;html=1;exitX=0;exitY=0.5;exitDx=0;exitDy=0;entryX=1;entryY=0.5;entryDx=0;entryDy=0;" edge="1" parent="WIyWlLk6GJQsqaUBKTNV-1" source="ptOUUm3T6Vk_q6HezHhn-42" target="ptOUUm3T6Vk_q6HezHhn-44">
          <mxGeometry relative="1" as="geometry" />
        </mxCell>
        <mxCell id="ptOUUm3T6Vk_q6HezHhn-42" value="Over 21?" style="rhombus;whiteSpace=wrap;html=1;shadow=0;fontFamily=Helvetica;fontSize=12;align=center;strokeWidth=1;spacing=6;spacingTop=-4;fillColor=#f5f5f5;strokeColor=#666666;fontColor=#333333;" vertex="1" parent="WIyWlLk6GJQsqaUBKTNV-1">
          <mxGeometry x="660" y="890" width="100" height="80" as="geometry" />
        </mxCell>
        <mxCell id="ptOUUm3T6Vk_q6HezHhn-47" value="Continue" style="edgeStyle=orthogonalEdgeStyle;rounded=0;orthogonalLoop=1;jettySize=auto;html=1;exitX=0.5;exitY=0;exitDx=0;exitDy=0;entryX=0;entryY=0.5;entryDx=0;entryDy=0;" edge="1" parent="WIyWlLk6GJQsqaUBKTNV-1" source="ptOUUm3T6Vk_q6HezHhn-44" target="ptOUUm3T6Vk_q6HezHhn-35">
          <mxGeometry relative="1" as="geometry" />
        </mxCell>
        <mxCell id="ptOUUm3T6Vk_q6HezHhn-48" value="Stop" style="edgeStyle=orthogonalEdgeStyle;rounded=0;orthogonalLoop=1;jettySize=auto;html=1;exitX=0.5;exitY=1;exitDx=0;exitDy=0;entryX=0.71;entryY=0.017;entryDx=0;entryDy=0;entryPerimeter=0;" edge="1" parent="WIyWlLk6GJQsqaUBKTNV-1" source="ptOUUm3T6Vk_q6HezHhn-44" target="ptOUUm3T6Vk_q6HezHhn-31">
          <mxGeometry relative="1" as="geometry" />
        </mxCell>
        <mxCell id="ptOUUm3T6Vk_q6HezHhn-44" value="Stop or continue?" style="rhombus;whiteSpace=wrap;html=1;shadow=0;fontFamily=Helvetica;fontSize=12;align=center;strokeWidth=1;spacing=6;spacingTop=-4;fillColor=#f5f5f5;strokeColor=#666666;fontColor=#333333;" vertex="1" parent="WIyWlLk6GJQsqaUBKTNV-1">
          <mxGeometry x="510" y="890" width="100" height="80" as="geometry" />
        </mxCell>
        <mxCell id="ptOUUm3T6Vk_q6HezHhn-55" style="edgeStyle=orthogonalEdgeStyle;rounded=0;orthogonalLoop=1;jettySize=auto;html=1;exitX=0.5;exitY=1;exitDx=0;exitDy=0;entryX=0.5;entryY=0;entryDx=0;entryDy=0;" edge="1" parent="WIyWlLk6GJQsqaUBKTNV-1" source="ptOUUm3T6Vk_q6HezHhn-49" target="ptOUUm3T6Vk_q6HezHhn-51">
          <mxGeometry relative="1" as="geometry" />
        </mxCell>
        <mxCell id="ptOUUm3T6Vk_q6HezHhn-49" value="Determine winner" style="rounded=1;whiteSpace=wrap;html=1;fontSize=12;glass=0;strokeWidth=1;shadow=0;fillColor=#f5f5f5;fontColor=#333333;strokeColor=#666666;" vertex="1" parent="WIyWlLk6GJQsqaUBKTNV-1">
          <mxGeometry x="354" y="1140" width="120" height="40" as="geometry" />
        </mxCell>
        <mxCell id="ptOUUm3T6Vk_q6HezHhn-56" style="edgeStyle=orthogonalEdgeStyle;rounded=0;orthogonalLoop=1;jettySize=auto;html=1;exitX=0.5;exitY=1;exitDx=0;exitDy=0;entryX=0.5;entryY=0;entryDx=0;entryDy=0;" edge="1" parent="WIyWlLk6GJQsqaUBKTNV-1" source="ptOUUm3T6Vk_q6HezHhn-51" target="ptOUUm3T6Vk_q6HezHhn-52">
          <mxGeometry relative="1" as="geometry" />
        </mxCell>
        <mxCell id="ptOUUm3T6Vk_q6HezHhn-51" value="Display scoreboard" style="rounded=1;whiteSpace=wrap;html=1;fontSize=12;glass=0;strokeWidth=1;shadow=0;fillColor=#f5f5f5;fontColor=#333333;strokeColor=#666666;" vertex="1" parent="WIyWlLk6GJQsqaUBKTNV-1">
          <mxGeometry x="354" y="1220" width="120" height="40" as="geometry" />
        </mxCell>
        <mxCell id="ptOUUm3T6Vk_q6HezHhn-53" value="No" style="edgeStyle=orthogonalEdgeStyle;rounded=0;orthogonalLoop=1;jettySize=auto;html=1;exitX=0.5;exitY=1;exitDx=0;exitDy=0;entryX=0.5;entryY=0;entryDx=0;entryDy=0;entryPerimeter=0;" edge="1" parent="WIyWlLk6GJQsqaUBKTNV-1" source="ptOUUm3T6Vk_q6HezHhn-52" target="ptOUUm3T6Vk_q6HezHhn-54">
          <mxGeometry relative="1" as="geometry">
            <mxPoint x="530" y="1350" as="targetPoint" />
          </mxGeometry>
        </mxCell>
        <mxCell id="ptOUUm3T6Vk_q6HezHhn-57" value="Yes" style="edgeStyle=orthogonalEdgeStyle;rounded=0;orthogonalLoop=1;jettySize=auto;html=1;exitX=0;exitY=0.5;exitDx=0;exitDy=0;entryX=-0.01;entryY=0.4;entryDx=0;entryDy=0;entryPerimeter=0;" edge="1" parent="WIyWlLk6GJQsqaUBKTNV-1" source="ptOUUm3T6Vk_q6HezHhn-52" target="ptOUUm3T6Vk_q6HezHhn-9">
          <mxGeometry x="-0.7599" relative="1" as="geometry">
            <mxPoint x="-100" y="680" as="targetPoint" />
            <Array as="points">
              <mxPoint x="-130" y="1350" />
              <mxPoint x="-130" y="444" />
            </Array>
            <mxPoint as="offset" />
          </mxGeometry>
        </mxCell>
        <mxCell id="ptOUUm3T6Vk_q6HezHhn-52" value="Start new game?" style="rhombus;whiteSpace=wrap;html=1;shadow=0;fontFamily=Helvetica;fontSize=12;align=center;strokeWidth=1;spacing=6;spacingTop=-4;fillColor=#f5f5f5;strokeColor=#666666;fontColor=#333333;" vertex="1" parent="WIyWlLk6GJQsqaUBKTNV-1">
          <mxGeometry x="364" y="1310" width="100" height="80" as="geometry" />
        </mxCell>
        <mxCell id="ptOUUm3T6Vk_q6HezHhn-54" value="Game over" style="strokeWidth=2;html=1;shape=mxgraph.flowchart.terminator;whiteSpace=wrap;fillColor=#f8cecc;strokeColor=#b85450;" vertex="1" parent="WIyWlLk6GJQsqaUBKTNV-1">
          <mxGeometry x="364" y="1440" width="100" height="60" as="geometry" />
        </mxCell>
        <mxCell id="ptOUUm3T6Vk_q6HezHhn-62" style="edgeStyle=orthogonalEdgeStyle;rounded=0;orthogonalLoop=1;jettySize=auto;html=1;exitX=0.5;exitY=1;exitDx=0;exitDy=0;entryX=0.5;entryY=0;entryDx=0;entryDy=0;" edge="1" parent="WIyWlLk6GJQsqaUBKTNV-1" source="ptOUUm3T6Vk_q6HezHhn-58" target="ptOUUm3T6Vk_q6HezHhn-59">
          <mxGeometry relative="1" as="geometry" />
        </mxCell>
        <mxCell id="ptOUUm3T6Vk_q6HezHhn-58" value="Prepare game" style="rounded=1;whiteSpace=wrap;html=1;fontSize=12;glass=0;strokeWidth=1;shadow=0;fillColor=#f5f5f5;fontColor=#333333;strokeColor=#666666;" vertex="1" parent="WIyWlLk6GJQsqaUBKTNV-1">
          <mxGeometry x="-90" y="530" width="120" height="40" as="geometry" />
        </mxCell>
        <mxCell id="ptOUUm3T6Vk_q6HezHhn-60" style="edgeStyle=orthogonalEdgeStyle;rounded=0;orthogonalLoop=1;jettySize=auto;html=1;exitX=1;exitY=0.5;exitDx=0;exitDy=0;entryX=0;entryY=0.5;entryDx=0;entryDy=0;entryPerimeter=0;" edge="1" parent="WIyWlLk6GJQsqaUBKTNV-1" source="ptOUUm3T6Vk_q6HezHhn-59" target="ptOUUm3T6Vk_q6HezHhn-11">
          <mxGeometry relative="1" as="geometry" />
        </mxCell>
        <mxCell id="ptOUUm3T6Vk_q6HezHhn-59" value="Display game" style="rounded=1;whiteSpace=wrap;html=1;fontSize=12;glass=0;strokeWidth=1;shadow=0;fillColor=#f5f5f5;fontColor=#333333;strokeColor=#666666;" vertex="1" parent="WIyWlLk6GJQsqaUBKTNV-1">
          <mxGeometry x="-90" y="620" width="120" height="40" as="geometry" />
        </mxCell>
        <mxCell id="ptOUUm3T6Vk_q6HezHhn-66" style="edgeStyle=orthogonalEdgeStyle;rounded=0;orthogonalLoop=1;jettySize=auto;html=1;exitX=0.5;exitY=1;exitDx=0;exitDy=0;exitPerimeter=0;entryX=0.5;entryY=0;entryDx=0;entryDy=0;" edge="1" parent="WIyWlLk6GJQsqaUBKTNV-1" source="ptOUUm3T6Vk_q6HezHhn-67" target="ptOUUm3T6Vk_q6HezHhn-69">
          <mxGeometry relative="1" as="geometry" />
        </mxCell>
        <mxCell id="ptOUUm3T6Vk_q6HezHhn-67" value="Start game" style="strokeWidth=2;html=1;shape=mxgraph.flowchart.terminator;whiteSpace=wrap;fillColor=#d5e8d4;strokeColor=#82b366;" vertex="1" parent="WIyWlLk6GJQsqaUBKTNV-1">
          <mxGeometry x="-200" y="1700" width="100" height="60" as="geometry" />
        </mxCell>
        <mxCell id="ptOUUm3T6Vk_q6HezHhn-68" style="edgeStyle=orthogonalEdgeStyle;rounded=0;orthogonalLoop=1;jettySize=auto;html=1;exitX=0.5;exitY=1;exitDx=0;exitDy=0;entryX=0.5;entryY=0;entryDx=0;entryDy=0;" edge="1" parent="WIyWlLk6GJQsqaUBKTNV-1" source="ptOUUm3T6Vk_q6HezHhn-69" target="ptOUUm3T6Vk_q6HezHhn-70">
          <mxGeometry relative="1" as="geometry" />
        </mxCell>
        <mxCell id="ptOUUm3T6Vk_q6HezHhn-69" value="Prepare game" style="rounded=1;whiteSpace=wrap;html=1;fontSize=12;glass=0;strokeWidth=1;shadow=0;fillColor=#f5f5f5;fontColor=#333333;strokeColor=#666666;" vertex="1" parent="WIyWlLk6GJQsqaUBKTNV-1">
          <mxGeometry x="-210" y="1810" width="120" height="40" as="geometry" />
        </mxCell>
        <mxCell id="ptOUUm3T6Vk_q6HezHhn-83" style="edgeStyle=orthogonalEdgeStyle;rounded=0;orthogonalLoop=1;jettySize=auto;html=1;exitX=0.5;exitY=1;exitDx=0;exitDy=0;entryX=0.5;entryY=0;entryDx=0;entryDy=0;entryPerimeter=0;" edge="1" parent="WIyWlLk6GJQsqaUBKTNV-1" source="ptOUUm3T6Vk_q6HezHhn-70" target="ptOUUm3T6Vk_q6HezHhn-82">
          <mxGeometry relative="1" as="geometry" />
        </mxCell>
        <mxCell id="ptOUUm3T6Vk_q6HezHhn-70" value="Display game" style="rounded=1;whiteSpace=wrap;html=1;fontSize=12;glass=0;strokeWidth=1;shadow=0;fillColor=#f5f5f5;fontColor=#333333;strokeColor=#666666;" vertex="1" parent="WIyWlLk6GJQsqaUBKTNV-1">
          <mxGeometry x="-210" y="1900" width="120" height="40" as="geometry" />
        </mxCell>
        <mxCell id="ptOUUm3T6Vk_q6HezHhn-71" value="" style="strokeWidth=2;html=1;shape=mxgraph.flowchart.annotation_2;align=left;labelPosition=right;pointerEvents=1;" vertex="1" parent="WIyWlLk6GJQsqaUBKTNV-1">
          <mxGeometry x="-60" y="1615" width="50" height="555" as="geometry" />
        </mxCell>
        <mxCell id="ptOUUm3T6Vk_q6HezHhn-78" style="edgeStyle=orthogonalEdgeStyle;rounded=0;orthogonalLoop=1;jettySize=auto;html=1;exitX=0.5;exitY=1;exitDx=0;exitDy=0;exitPerimeter=0;entryX=0.5;entryY=0;entryDx=0;entryDy=0;" edge="1" parent="WIyWlLk6GJQsqaUBKTNV-1" source="ptOUUm3T6Vk_q6HezHhn-73" target="ptOUUm3T6Vk_q6HezHhn-74">
          <mxGeometry relative="1" as="geometry" />
        </mxCell>
        <mxCell id="ptOUUm3T6Vk_q6HezHhn-73" value="Start game" style="strokeWidth=2;html=1;shape=mxgraph.flowchart.terminator;whiteSpace=wrap;fillColor=#d5e8d4;strokeColor=#82b366;" vertex="1" parent="WIyWlLk6GJQsqaUBKTNV-1">
          <mxGeometry x="20" y="1610" width="100" height="60" as="geometry" />
        </mxCell>
        <mxCell id="ptOUUm3T6Vk_q6HezHhn-79" style="edgeStyle=orthogonalEdgeStyle;rounded=0;orthogonalLoop=1;jettySize=auto;html=1;exitX=0.5;exitY=1;exitDx=0;exitDy=0;entryX=0.5;entryY=0;entryDx=0;entryDy=0;" edge="1" parent="WIyWlLk6GJQsqaUBKTNV-1" source="ptOUUm3T6Vk_q6HezHhn-74" target="ptOUUm3T6Vk_q6HezHhn-75">
          <mxGeometry relative="1" as="geometry" />
        </mxCell>
        <mxCell id="ptOUUm3T6Vk_q6HezHhn-74" value="Route game/21" style="rounded=1;whiteSpace=wrap;html=1;fontSize=12;glass=0;strokeWidth=1;shadow=0;fillColor=#f5f5f5;fontColor=#333333;strokeColor=#666666;" vertex="1" parent="WIyWlLk6GJQsqaUBKTNV-1">
          <mxGeometry x="10" y="1720" width="120" height="40" as="geometry" />
        </mxCell>
        <mxCell id="ptOUUm3T6Vk_q6HezHhn-80" style="edgeStyle=orthogonalEdgeStyle;rounded=0;orthogonalLoop=1;jettySize=auto;html=1;exitX=0.5;exitY=1;exitDx=0;exitDy=0;entryX=0.5;entryY=0;entryDx=0;entryDy=0;" edge="1" parent="WIyWlLk6GJQsqaUBKTNV-1" source="ptOUUm3T6Vk_q6HezHhn-75" target="ptOUUm3T6Vk_q6HezHhn-76">
          <mxGeometry relative="1" as="geometry" />
        </mxCell>
        <mxCell id="ptOUUm3T6Vk_q6HezHhn-75" value="Create Game object" style="rounded=1;whiteSpace=wrap;html=1;fontSize=12;glass=0;strokeWidth=1;shadow=0;fillColor=#f5f5f5;fontColor=#333333;strokeColor=#666666;" vertex="1" parent="WIyWlLk6GJQsqaUBKTNV-1">
          <mxGeometry x="10" y="1810" width="120" height="40" as="geometry" />
        </mxCell>
        <mxCell id="ptOUUm3T6Vk_q6HezHhn-81" style="edgeStyle=orthogonalEdgeStyle;rounded=0;orthogonalLoop=1;jettySize=auto;html=1;exitX=0.5;exitY=1;exitDx=0;exitDy=0;entryX=0.5;entryY=0;entryDx=0;entryDy=0;" edge="1" parent="WIyWlLk6GJQsqaUBKTNV-1" source="ptOUUm3T6Vk_q6HezHhn-76" target="ptOUUm3T6Vk_q6HezHhn-77">
          <mxGeometry relative="1" as="geometry" />
        </mxCell>
        <mxCell id="ptOUUm3T6Vk_q6HezHhn-76" value="Game::shuffle()" style="rounded=1;whiteSpace=wrap;html=1;fontSize=12;glass=0;strokeWidth=1;shadow=0;fillColor=#f5f5f5;fontColor=#333333;strokeColor=#666666;" vertex="1" parent="WIyWlLk6GJQsqaUBKTNV-1">
          <mxGeometry x="10" y="1900" width="120" height="40" as="geometry" />
        </mxCell>
        <mxCell id="ptOUUm3T6Vk_q6HezHhn-85" style="edgeStyle=orthogonalEdgeStyle;rounded=0;orthogonalLoop=1;jettySize=auto;html=1;exitX=0.5;exitY=1;exitDx=0;exitDy=0;entryX=0.5;entryY=0;entryDx=0;entryDy=0;entryPerimeter=0;" edge="1" parent="WIyWlLk6GJQsqaUBKTNV-1" source="ptOUUm3T6Vk_q6HezHhn-77" target="ptOUUm3T6Vk_q6HezHhn-84">
          <mxGeometry relative="1" as="geometry" />
        </mxCell>
        <mxCell id="ptOUUm3T6Vk_q6HezHhn-77" value="Render (player hand, bank hand remaining cards, buttons, points)" style="rounded=1;whiteSpace=wrap;html=1;fontSize=12;glass=0;strokeWidth=1;shadow=0;fillColor=#f5f5f5;fontColor=#333333;strokeColor=#666666;" vertex="1" parent="WIyWlLk6GJQsqaUBKTNV-1">
          <mxGeometry x="10" y="1990" width="120" height="70" as="geometry" />
        </mxCell>
        <mxCell id="ptOUUm3T6Vk_q6HezHhn-82" value="Players turn" style="strokeWidth=2;html=1;shape=mxgraph.flowchart.terminator;whiteSpace=wrap;fillColor=#dae8fc;strokeColor=#6c8ebf;" vertex="1" parent="WIyWlLk6GJQsqaUBKTNV-1">
          <mxGeometry x="-200" y="1990" width="100" height="60" as="geometry" />
        </mxCell>
        <mxCell id="ptOUUm3T6Vk_q6HezHhn-84" value="Players turn" style="strokeWidth=2;html=1;shape=mxgraph.flowchart.terminator;whiteSpace=wrap;fillColor=#dae8fc;strokeColor=#6c8ebf;" vertex="1" parent="WIyWlLk6GJQsqaUBKTNV-1">
          <mxGeometry x="20" y="2110" width="100" height="60" as="geometry" />
        </mxCell>
        <mxCell id="ptOUUm3T6Vk_q6HezHhn-86" style="edgeStyle=orthogonalEdgeStyle;rounded=0;orthogonalLoop=1;jettySize=auto;html=1;exitX=0.5;exitY=1;exitDx=0;exitDy=0;exitPerimeter=0;entryX=0.5;entryY=0;entryDx=0;entryDy=0;" edge="1" parent="WIyWlLk6GJQsqaUBKTNV-1" source="ptOUUm3T6Vk_q6HezHhn-87" target="ptOUUm3T6Vk_q6HezHhn-89">
          <mxGeometry relative="1" as="geometry" />
        </mxCell>
        <mxCell id="ptOUUm3T6Vk_q6HezHhn-87" value="Players turn" style="strokeWidth=2;html=1;shape=mxgraph.flowchart.terminator;whiteSpace=wrap;fillColor=#dae8fc;strokeColor=#6c8ebf;" vertex="1" parent="WIyWlLk6GJQsqaUBKTNV-1">
          <mxGeometry x="273" y="1610" width="100" height="60" as="geometry" />
        </mxCell>
        <mxCell id="ptOUUm3T6Vk_q6HezHhn-88" style="edgeStyle=orthogonalEdgeStyle;rounded=0;orthogonalLoop=1;jettySize=auto;html=1;exitX=0.5;exitY=1;exitDx=0;exitDy=0;entryX=0.5;entryY=0;entryDx=0;entryDy=0;" edge="1" parent="WIyWlLk6GJQsqaUBKTNV-1" source="ptOUUm3T6Vk_q6HezHhn-89" target="ptOUUm3T6Vk_q6HezHhn-91">
          <mxGeometry relative="1" as="geometry" />
        </mxCell>
        <mxCell id="ptOUUm3T6Vk_q6HezHhn-89" value="Take card" style="rounded=1;whiteSpace=wrap;html=1;fontSize=12;glass=0;strokeWidth=1;shadow=0;fillColor=#f5f5f5;fontColor=#333333;strokeColor=#666666;" vertex="1" parent="WIyWlLk6GJQsqaUBKTNV-1">
          <mxGeometry x="263" y="1720" width="120" height="40" as="geometry" />
        </mxCell>
        <mxCell id="ptOUUm3T6Vk_q6HezHhn-90" style="edgeStyle=orthogonalEdgeStyle;rounded=0;orthogonalLoop=1;jettySize=auto;html=1;exitX=0.5;exitY=1;exitDx=0;exitDy=0;entryX=0.5;entryY=0;entryDx=0;entryDy=0;" edge="1" parent="WIyWlLk6GJQsqaUBKTNV-1" source="ptOUUm3T6Vk_q6HezHhn-91" target="ptOUUm3T6Vk_q6HezHhn-95">
          <mxGeometry relative="1" as="geometry" />
        </mxCell>
        <mxCell id="ptOUUm3T6Vk_q6HezHhn-91" value="Display card" style="rounded=1;whiteSpace=wrap;html=1;fontSize=12;glass=0;strokeWidth=1;shadow=0;fillColor=#f5f5f5;fontColor=#333333;strokeColor=#666666;" vertex="1" parent="WIyWlLk6GJQsqaUBKTNV-1">
          <mxGeometry x="263" y="1810" width="120" height="40" as="geometry" />
        </mxCell>
        <mxCell id="ptOUUm3T6Vk_q6HezHhn-92" value="Continue" style="edgeStyle=orthogonalEdgeStyle;rounded=0;orthogonalLoop=1;jettySize=auto;html=1;exitX=0.5;exitY=0;exitDx=0;exitDy=0;entryX=1;entryY=0.5;entryDx=0;entryDy=0;" edge="1" parent="WIyWlLk6GJQsqaUBKTNV-1" source="ptOUUm3T6Vk_q6HezHhn-93" target="ptOUUm3T6Vk_q6HezHhn-89">
          <mxGeometry x="-0.2857" relative="1" as="geometry">
            <Array as="points">
              <mxPoint x="503" y="1740" />
            </Array>
            <mxPoint as="offset" />
          </mxGeometry>
        </mxCell>
        <mxCell id="ptOUUm3T6Vk_q6HezHhn-93" value="Stop or continue?" style="rhombus;whiteSpace=wrap;html=1;shadow=0;fontFamily=Helvetica;fontSize=12;align=center;strokeWidth=1;spacing=6;spacingTop=-4;fillColor=#f5f5f5;strokeColor=#666666;fontColor=#333333;" vertex="1" parent="WIyWlLk6GJQsqaUBKTNV-1">
          <mxGeometry x="453" y="2080" width="100" height="80" as="geometry" />
        </mxCell>
        <mxCell id="ptOUUm3T6Vk_q6HezHhn-94" style="edgeStyle=orthogonalEdgeStyle;rounded=0;orthogonalLoop=1;jettySize=auto;html=1;exitX=0.5;exitY=1;exitDx=0;exitDy=0;entryX=0.5;entryY=0;entryDx=0;entryDy=0;" edge="1" parent="WIyWlLk6GJQsqaUBKTNV-1" source="ptOUUm3T6Vk_q6HezHhn-95" target="ptOUUm3T6Vk_q6HezHhn-97">
          <mxGeometry relative="1" as="geometry" />
        </mxCell>
        <mxCell id="ptOUUm3T6Vk_q6HezHhn-95" value="Calculate current points" style="rounded=1;whiteSpace=wrap;html=1;fontSize=12;glass=0;strokeWidth=1;shadow=0;fillColor=#f5f5f5;fontColor=#333333;strokeColor=#666666;" vertex="1" parent="WIyWlLk6GJQsqaUBKTNV-1">
          <mxGeometry x="263" y="1900" width="120" height="40" as="geometry" />
        </mxCell>
        <mxCell id="ptOUUm3T6Vk_q6HezHhn-96" style="edgeStyle=orthogonalEdgeStyle;rounded=0;orthogonalLoop=1;jettySize=auto;html=1;exitX=0.5;exitY=1;exitDx=0;exitDy=0;entryX=0.5;entryY=0;entryDx=0;entryDy=0;" edge="1" parent="WIyWlLk6GJQsqaUBKTNV-1" source="ptOUUm3T6Vk_q6HezHhn-97" target="ptOUUm3T6Vk_q6HezHhn-100">
          <mxGeometry relative="1" as="geometry" />
        </mxCell>
        <mxCell id="ptOUUm3T6Vk_q6HezHhn-97" value="Display current points" style="rounded=1;whiteSpace=wrap;html=1;fontSize=12;glass=0;strokeWidth=1;shadow=0;fillColor=#f5f5f5;fontColor=#333333;strokeColor=#666666;" vertex="1" parent="WIyWlLk6GJQsqaUBKTNV-1">
          <mxGeometry x="263" y="1990" width="120" height="40" as="geometry" />
        </mxCell>
        <mxCell id="ptOUUm3T6Vk_q6HezHhn-98" value="Yes" style="edgeStyle=orthogonalEdgeStyle;rounded=0;orthogonalLoop=1;jettySize=auto;html=1;exitX=0.5;exitY=1;exitDx=0;exitDy=0;entryX=0.5;entryY=0;entryDx=0;entryDy=0;entryPerimeter=0;" edge="1" parent="WIyWlLk6GJQsqaUBKTNV-1" source="ptOUUm3T6Vk_q6HezHhn-100" target="ptOUUm3T6Vk_q6HezHhn-101">
          <mxGeometry relative="1" as="geometry" />
        </mxCell>
        <mxCell id="ptOUUm3T6Vk_q6HezHhn-99" value="No" style="edgeStyle=orthogonalEdgeStyle;rounded=0;orthogonalLoop=1;jettySize=auto;html=1;entryX=0;entryY=0.5;entryDx=0;entryDy=0;" edge="1" parent="WIyWlLk6GJQsqaUBKTNV-1" source="ptOUUm3T6Vk_q6HezHhn-100" target="ptOUUm3T6Vk_q6HezHhn-93">
          <mxGeometry relative="1" as="geometry">
            <mxPoint x="473" y="2270" as="targetPoint" />
          </mxGeometry>
        </mxCell>
        <mxCell id="ptOUUm3T6Vk_q6HezHhn-100" value="Over 21?" style="rhombus;whiteSpace=wrap;html=1;shadow=0;fontFamily=Helvetica;fontSize=12;align=center;strokeWidth=1;spacing=6;spacingTop=-4;fillColor=#f5f5f5;strokeColor=#666666;fontColor=#333333;" vertex="1" parent="WIyWlLk6GJQsqaUBKTNV-1">
          <mxGeometry x="273" y="2080" width="100" height="80" as="geometry" />
        </mxCell>
        <mxCell id="ptOUUm3T6Vk_q6HezHhn-101" value="End game" style="strokeWidth=2;html=1;shape=mxgraph.flowchart.terminator;whiteSpace=wrap;fillColor=#ffe6cc;strokeColor=#d79b00;" vertex="1" parent="WIyWlLk6GJQsqaUBKTNV-1">
          <mxGeometry x="457" y="2220" width="100" height="60" as="geometry" />
        </mxCell>
        <mxCell id="ptOUUm3T6Vk_q6HezHhn-103" value="" style="strokeWidth=2;html=1;shape=mxgraph.flowchart.annotation_2;align=left;labelPosition=right;pointerEvents=1;" vertex="1" parent="WIyWlLk6GJQsqaUBKTNV-1">
          <mxGeometry x="580" y="1430" width="60" height="1000" as="geometry" />
        </mxCell>
        <mxCell id="ptOUUm3T6Vk_q6HezHhn-104" style="edgeStyle=orthogonalEdgeStyle;rounded=0;orthogonalLoop=1;jettySize=auto;html=1;exitX=0.5;exitY=1;exitDx=0;exitDy=0;exitPerimeter=0;entryX=0.5;entryY=0;entryDx=0;entryDy=0;" edge="1" parent="WIyWlLk6GJQsqaUBKTNV-1" source="ptOUUm3T6Vk_q6HezHhn-105">
          <mxGeometry relative="1" as="geometry">
            <mxPoint x="810" y="1540" as="targetPoint" />
          </mxGeometry>
        </mxCell>
        <mxCell id="ptOUUm3T6Vk_q6HezHhn-105" value="Players turn" style="strokeWidth=2;html=1;shape=mxgraph.flowchart.terminator;whiteSpace=wrap;fillColor=#dae8fc;strokeColor=#6c8ebf;" vertex="1" parent="WIyWlLk6GJQsqaUBKTNV-1">
          <mxGeometry x="760" y="1430" width="100" height="60" as="geometry" />
        </mxCell>
        <mxCell id="ptOUUm3T6Vk_q6HezHhn-109" style="edgeStyle=orthogonalEdgeStyle;rounded=0;orthogonalLoop=1;jettySize=auto;html=1;exitX=0.5;exitY=1;exitDx=0;exitDy=0;entryX=0.5;entryY=0;entryDx=0;entryDy=0;" edge="1" parent="WIyWlLk6GJQsqaUBKTNV-1" source="ptOUUm3T6Vk_q6HezHhn-107" target="ptOUUm3T6Vk_q6HezHhn-108">
          <mxGeometry relative="1" as="geometry" />
        </mxCell>
        <mxCell id="ptOUUm3T6Vk_q6HezHhn-107" value="User presses &lt;br&gt;take card button" style="shape=parallelogram;html=1;strokeWidth=1;perimeter=parallelogramPerimeter;whiteSpace=wrap;rounded=1;arcSize=12;size=0.23;fillColor=#f5f5f5;fontColor=#333333;strokeColor=#666666;" vertex="1" parent="WIyWlLk6GJQsqaUBKTNV-1">
          <mxGeometry x="745" y="1540" width="130" height="60" as="geometry" />
        </mxCell>
        <mxCell id="ptOUUm3T6Vk_q6HezHhn-115" style="edgeStyle=orthogonalEdgeStyle;rounded=0;orthogonalLoop=1;jettySize=auto;html=1;exitX=0.5;exitY=1;exitDx=0;exitDy=0;entryX=0.5;entryY=0;entryDx=0;entryDy=0;" edge="1" parent="WIyWlLk6GJQsqaUBKTNV-1" source="ptOUUm3T6Vk_q6HezHhn-108" target="ptOUUm3T6Vk_q6HezHhn-112">
          <mxGeometry relative="1" as="geometry" />
        </mxCell>
        <mxCell id="ptOUUm3T6Vk_q6HezHhn-108" value="POST" style="rounded=1;whiteSpace=wrap;html=1;fontSize=12;glass=0;strokeWidth=1;shadow=0;fillColor=#f5f5f5;fontColor=#333333;strokeColor=#666666;" vertex="1" parent="WIyWlLk6GJQsqaUBKTNV-1">
          <mxGeometry x="750" y="1650" width="120" height="40" as="geometry" />
        </mxCell>
        <mxCell id="ptOUUm3T6Vk_q6HezHhn-120" style="edgeStyle=orthogonalEdgeStyle;rounded=0;orthogonalLoop=1;jettySize=auto;html=1;exitX=0.5;exitY=1;exitDx=0;exitDy=0;entryX=0.5;entryY=0;entryDx=0;entryDy=0;" edge="1" parent="WIyWlLk6GJQsqaUBKTNV-1" source="ptOUUm3T6Vk_q6HezHhn-110" target="ptOUUm3T6Vk_q6HezHhn-119">
          <mxGeometry relative="1" as="geometry" />
        </mxCell>
        <mxCell id="ptOUUm3T6Vk_q6HezHhn-110" value="Game::deal()" style="rounded=1;whiteSpace=wrap;html=1;fontSize=12;glass=0;strokeWidth=1;shadow=0;fillColor=#f5f5f5;fontColor=#333333;strokeColor=#666666;" vertex="1" parent="WIyWlLk6GJQsqaUBKTNV-1">
          <mxGeometry x="750" y="1830" width="120" height="40" as="geometry" />
        </mxCell>
        <mxCell id="ptOUUm3T6Vk_q6HezHhn-118" style="edgeStyle=orthogonalEdgeStyle;rounded=0;orthogonalLoop=1;jettySize=auto;html=1;exitX=0.5;exitY=1;exitDx=0;exitDy=0;entryX=0.5;entryY=0;entryDx=0;entryDy=0;" edge="1" parent="WIyWlLk6GJQsqaUBKTNV-1" source="ptOUUm3T6Vk_q6HezHhn-111" target="ptOUUm3T6Vk_q6HezHhn-114">
          <mxGeometry relative="1" as="geometry" />
        </mxCell>
        <mxCell id="ptOUUm3T6Vk_q6HezHhn-111" value="Route game/21" style="rounded=1;whiteSpace=wrap;html=1;fontSize=12;glass=0;strokeWidth=1;shadow=0;fillColor=#f5f5f5;fontColor=#333333;strokeColor=#666666;" vertex="1" parent="WIyWlLk6GJQsqaUBKTNV-1">
          <mxGeometry x="750" y="2140" width="120" height="40" as="geometry" />
        </mxCell>
        <mxCell id="ptOUUm3T6Vk_q6HezHhn-116" style="edgeStyle=orthogonalEdgeStyle;rounded=0;orthogonalLoop=1;jettySize=auto;html=1;exitX=0.5;exitY=1;exitDx=0;exitDy=0;entryX=0.5;entryY=0;entryDx=0;entryDy=0;" edge="1" parent="WIyWlLk6GJQsqaUBKTNV-1" source="ptOUUm3T6Vk_q6HezHhn-112" target="ptOUUm3T6Vk_q6HezHhn-110">
          <mxGeometry relative="1" as="geometry" />
        </mxCell>
        <mxCell id="ptOUUm3T6Vk_q6HezHhn-112" value="Create Game object" style="rounded=1;whiteSpace=wrap;html=1;fontSize=12;glass=0;strokeWidth=1;shadow=0;fillColor=#f5f5f5;fontColor=#333333;strokeColor=#666666;" vertex="1" parent="WIyWlLk6GJQsqaUBKTNV-1">
          <mxGeometry x="750" y="1740" width="120" height="40" as="geometry" />
        </mxCell>
        <mxCell id="ptOUUm3T6Vk_q6HezHhn-131" style="edgeStyle=orthogonalEdgeStyle;rounded=0;orthogonalLoop=1;jettySize=auto;html=1;exitX=0.5;exitY=1;exitDx=0;exitDy=0;entryX=0.5;entryY=0;entryDx=0;entryDy=0;" edge="1" parent="WIyWlLk6GJQsqaUBKTNV-1" source="ptOUUm3T6Vk_q6HezHhn-114" target="ptOUUm3T6Vk_q6HezHhn-130">
          <mxGeometry relative="1" as="geometry" />
        </mxCell>
        <mxCell id="ptOUUm3T6Vk_q6HezHhn-114" value="Render (player hand, bank hand remaining cards, buttons, points)" style="rounded=1;whiteSpace=wrap;html=1;fontSize=12;glass=0;strokeWidth=1;shadow=0;fillColor=#f5f5f5;fontColor=#333333;strokeColor=#666666;" vertex="1" parent="WIyWlLk6GJQsqaUBKTNV-1">
          <mxGeometry x="750" y="2230" width="120" height="70" as="geometry" />
        </mxCell>
        <mxCell id="ptOUUm3T6Vk_q6HezHhn-128" style="edgeStyle=orthogonalEdgeStyle;rounded=0;orthogonalLoop=1;jettySize=auto;html=1;exitX=0.5;exitY=1;exitDx=0;exitDy=0;entryX=0.5;entryY=0;entryDx=0;entryDy=0;" edge="1" parent="WIyWlLk6GJQsqaUBKTNV-1" source="ptOUUm3T6Vk_q6HezHhn-119" target="ptOUUm3T6Vk_q6HezHhn-122">
          <mxGeometry relative="1" as="geometry" />
        </mxCell>
        <mxCell id="ptOUUm3T6Vk_q6HezHhn-119" value="Game::&lt;br&gt;CalculatePoints()" style="rounded=1;whiteSpace=wrap;html=1;fontSize=12;glass=0;strokeWidth=1;shadow=0;fillColor=#f5f5f5;fontColor=#333333;strokeColor=#666666;" vertex="1" parent="WIyWlLk6GJQsqaUBKTNV-1">
          <mxGeometry x="750" y="1920" width="120" height="40" as="geometry" />
        </mxCell>
        <mxCell id="ptOUUm3T6Vk_q6HezHhn-127" value="Yes" style="edgeStyle=orthogonalEdgeStyle;rounded=0;orthogonalLoop=1;jettySize=auto;html=1;exitX=1;exitY=0.5;exitDx=0;exitDy=0;entryX=0.5;entryY=0;entryDx=0;entryDy=0;entryPerimeter=0;" edge="1" parent="WIyWlLk6GJQsqaUBKTNV-1" source="ptOUUm3T6Vk_q6HezHhn-122" target="ptOUUm3T6Vk_q6HezHhn-124">
          <mxGeometry x="-0.3042" relative="1" as="geometry">
            <mxPoint as="offset" />
          </mxGeometry>
        </mxCell>
        <mxCell id="ptOUUm3T6Vk_q6HezHhn-129" value="Noi" style="edgeStyle=orthogonalEdgeStyle;rounded=0;orthogonalLoop=1;jettySize=auto;html=1;exitX=0.5;exitY=1;exitDx=0;exitDy=0;entryX=0.5;entryY=0;entryDx=0;entryDy=0;" edge="1" parent="WIyWlLk6GJQsqaUBKTNV-1" source="ptOUUm3T6Vk_q6HezHhn-122" target="ptOUUm3T6Vk_q6HezHhn-111">
          <mxGeometry relative="1" as="geometry" />
        </mxCell>
        <mxCell id="ptOUUm3T6Vk_q6HezHhn-122" value="Over 21?" style="rhombus;whiteSpace=wrap;html=1;shadow=0;fontFamily=Helvetica;fontSize=12;align=center;strokeWidth=1;spacing=6;spacingTop=-4;fillColor=#f5f5f5;strokeColor=#666666;fontColor=#333333;" vertex="1" parent="WIyWlLk6GJQsqaUBKTNV-1">
          <mxGeometry x="760" y="2010" width="100" height="80" as="geometry" />
        </mxCell>
        <mxCell id="ptOUUm3T6Vk_q6HezHhn-124" value="End game" style="strokeWidth=2;html=1;shape=mxgraph.flowchart.terminator;whiteSpace=wrap;fillColor=#ffe6cc;strokeColor=#d79b00;" vertex="1" parent="WIyWlLk6GJQsqaUBKTNV-1">
          <mxGeometry x="960" y="2130" width="100" height="60" as="geometry" />
        </mxCell>
        <mxCell id="ptOUUm3T6Vk_q6HezHhn-132" value="Continue" style="edgeStyle=orthogonalEdgeStyle;rounded=0;orthogonalLoop=1;jettySize=auto;html=1;exitX=0;exitY=0.5;exitDx=0;exitDy=0;entryX=0;entryY=0.5;entryDx=0;entryDy=0;" edge="1" parent="WIyWlLk6GJQsqaUBKTNV-1" source="ptOUUm3T6Vk_q6HezHhn-130" target="ptOUUm3T6Vk_q6HezHhn-107">
          <mxGeometry relative="1" as="geometry">
            <Array as="points">
              <mxPoint x="710" y="2390" />
              <mxPoint x="710" y="1570" />
            </Array>
          </mxGeometry>
        </mxCell>
        <mxCell id="ptOUUm3T6Vk_q6HezHhn-133" value="Stop" style="edgeStyle=orthogonalEdgeStyle;rounded=0;orthogonalLoop=1;jettySize=auto;html=1;exitX=1;exitY=0.5;exitDx=0;exitDy=0;entryX=0.5;entryY=1;entryDx=0;entryDy=0;entryPerimeter=0;" edge="1" parent="WIyWlLk6GJQsqaUBKTNV-1" source="ptOUUm3T6Vk_q6HezHhn-130" target="ptOUUm3T6Vk_q6HezHhn-124">
          <mxGeometry relative="1" as="geometry" />
        </mxCell>
        <mxCell id="ptOUUm3T6Vk_q6HezHhn-130" value="Stop or continue?" style="rhombus;whiteSpace=wrap;html=1;shadow=0;fontFamily=Helvetica;fontSize=12;align=center;strokeWidth=1;spacing=6;spacingTop=-4;fillColor=#f5f5f5;strokeColor=#666666;fontColor=#333333;" vertex="1" parent="WIyWlLk6GJQsqaUBKTNV-1">
          <mxGeometry x="760" y="2350" width="100" height="80" as="geometry" />
        </mxCell>
      </root>
    </mxGraphModel>
  </diagram>
</mxfile>
